<svg width="25" height="24" viewBox="0 0 25 24" fill="none" xmlns="http://www.w3.org/2000/svg">
            <g clip-path="url(#clip0_6308_51)">
                <path d="M24.177 2.42216C24.294 1.87753 23.7601 1.4183 23.2392 1.61705L0.645685 10.242C0.512852 10.2927 0.398516 10.3825 0.317763 10.4995C0.23701 10.6165 0.193635 10.7553 0.193361 10.8975C0.193087 11.0397 0.235926 11.1786 0.316228 11.2959C0.396529 11.4133 0.510518 11.5035 0.643154 11.5547L6.99011 14.006V21.7269C6.9901 21.8851 7.04344 22.0387 7.14153 22.1628C7.23961 22.287 7.3767 22.3744 7.53062 22.411C7.68454 22.4476 7.84631 22.4312 7.98976 22.3645C8.13322 22.2977 8.24997 22.1846 8.32116 22.0433L10.9462 16.8342L17.3522 21.5884C17.7419 21.8776 18.302 21.6936 18.4438 21.2289C24.425 1.61859 24.1664 2.47143 24.177 2.42216ZM18.5999 4.8933L7.59357 12.7316L2.85793 10.9027L18.5999 4.8933ZM8.39634 13.8863L17.9901 7.05398C9.7348 15.7628 10.166 15.3044 10.13 15.3529C10.0765 15.4248 10.223 15.1444 8.39634 18.7692V13.8863ZM17.3896 19.8649L11.7508 15.6802L21.9465 4.92423L17.3896 19.8649Z" fill="currentColor"></path>
            </g>
            <defs>
                <clipPath id="clip0_6308_51">
                    <rect width="24" height="24" fill="white" transform="translate(0.193359)"></rect>
                </clipPath>
            </defs>
        </svg>